<?xml version="1.0" encoding="UTF-8" standalone="no"?>
<svg
   id="svg"
   version="1.1"
   style="display: block;"
   viewBox="0 0 162 136"
   sodipodi:docname="truck-emoji-pixel.svg"
   inkscape:export-filename="/Users/baphomet/Downloads/truck-emoji-pixel.png"
   inkscape:export-xdpi="96"
   inkscape:export-ydpi="96"
   inkscape:version="1.1.1 (c3084ef, 2021-09-22)"
   xmlns:inkscape="http://www.inkscape.org/namespaces/inkscape"
   xmlns:sodipodi="http://sodipodi.sourceforge.net/DTD/sodipodi-0.dtd"
   xmlns="http://www.w3.org/2000/svg"
   xmlns:svg="http://www.w3.org/2000/svg">
  <defs
     id="defs188" />
  <sodipodi:namedview
     id="namedview186"
     pagecolor="#ffffff"
     bordercolor="#666666"
     borderopacity="1.0"
     inkscape:pageshadow="2"
     inkscape:pageopacity="0.0"
     inkscape:pagecheckerboard="0"
     showgrid="false"
     inkscape:zoom="5.2867647"
     inkscape:cx="87.955494"
     inkscape:cy="57.785814"
     inkscape:window-width="1312"
     inkscape:window-height="969"
     inkscape:window-x="0"
     inkscape:window-y="38"
     inkscape:window-maximized="0"
     inkscape:current-layer="svg" />
  <path
     d="M0,0 L162,0 L162,136 L0,136 Z "
     transform="translate(0,0)"
     style="fill:none"
     id="path9" />
  <path
     d="M0,0 L80,0 L80,76 L75,76 L75,77 L76,77 L76,79 L81,79 L81,80 L82,80 L82,81 L84,81 L84,96 L83,96 L83,97 L82,97 L82,98 L76,98 L76,87 L75,87 L75,85 L74,85 L74,83 L73,83 L73,82 L72,82 L72,81 L71,81 L71,80 L70,80 L70,79 L69,79 L69,78 L68,78 L68,77 L66,77 L66,76 L64,76 L64,75 L61,75 L61,74 L52,74 L52,75 L49,75 L49,76 L47,76 L47,77 L46,77 L46,78 L45,78 L45,79 L44,79 L44,80 L43,80 L43,81 L42,81 L42,82 L41,82 L41,83 L40,83 L40,85 L39,85 L39,87 L38,87 L38,98 L-11,98 L-11,87 L-12,87 L-12,85 L-13,85 L-13,83 L-14,83 L-14,82 L-15,82 L-15,81 L-16,81 L-16,80 L-17,80 L-17,79 L-18,79 L-18,78 L-19,78 L-19,77 L-21,77 L-21,76 L-22,76 L-22,75 L-25,75 L-25,74 L-35,74 L-35,75 L-38,75 L-38,76 L-40,76 L-40,77 L-41,77 L-41,78 L-43,78 L-43,79 L-44,79 L-44,80 L-45,80 L-45,81 L-46,81 L-46,83 L-47,83 L-47,85 L-48,85 L-48,87 L-49,87 L-49,99 L-54,99 L-54,98 L-55,98 L-55,97 L-56,97 L-56,96 L-57,96 L-57,94 L-58,94 L-58,81 L-56,81 L-56,80 L-54,80 L-54,71 L-55,71 L-55,63 L-53,63 L-53,62 L-54,62 L-54,58 L-3,58 L-3,79 L38,79 L38,76 L0,76 Z "
     transform="translate(69,14)"
     style="fill: #E60A07;"
     id="path11" />
  <path
     d="M0,0 L84,0 L84,80 L78,80 L78,79 L77,79 L77,78 L82,78 L82,2 L2,2 L2,78 L40,78 L40,81 L-1,81 L-1,60 L-53,60 L-53,51 L-52,51 L-52,48 L-51,48 L-51,43 L-50,43 L-50,40 L-49,40 L-49,38 L-48,38 L-48,36 L-47,36 L-47,34 L-46,34 L-46,32 L-45,32 L-45,30 L-44,30 L-44,29 L-43,29 L-43,28 L-42,28 L-42,26 L-41,26 L-41,25 L-40,25 L-40,24 L-39,24 L-39,23 L-38,23 L-38,22 L-37,22 L-37,21 L-36,21 L-36,20 L-34,20 L-34,19 L-33,19 L-33,18 L-32,18 L-32,17 L-31,17 L-31,16 L-29,16 L-29,15 L-27,15 L-27,14 L-1,14 L-1,1 L0,1 Z "
     transform="translate(67,12)"
     style="fill: #E0D2B5;"
     id="path13" />
  <path
     d="M0,0 L79,0 L79,18 L0,18 Z "
     transform="translate(69,54)"
     style="fill: #F08E00;"
     id="path15" />
  <path
     d="M0,0 L79,0 L79,18 L0,18 Z "
     transform="translate(69,34)"
     style="fill: #FEA700;"
     id="path17" />
  <path
     d="M0,0 L10,0 L10,1 L13,1 L13,2 L14,2 L14,3 L16,3 L16,4 L17,4 L17,5 L18,5 L18,6 L19,6 L19,7 L20,7 L20,8 L21,8 L21,9 L22,9 L22,11 L23,11 L23,13 L24,13 L24,27 L23,27 L23,28 L22,28 L22,30 L21,30 L21,32 L20,32 L20,33 L19,33 L19,34 L18,34 L18,35 L17,35 L17,36 L15,36 L15,37 L13,37 L13,38 L11,38 L11,39 L-2,39 L-2,38 L-4,38 L-4,37 L-6,37 L-6,36 L-7,36 L-7,35 L-8,35 L-8,34 L-9,34 L-9,33 L-10,33 L-10,31 L-11,31 L-11,30 L-12,30 L-12,28 L-13,28 L-13,25 L-14,25 L-14,13 L-13,13 L-13,11 L-12,11 L-12,9 L-11,9 L-11,7 L-10,7 L-10,6 L-9,6 L-9,5 L-8,5 L-8,4 L-6,4 L-6,3 L-5,3 L-5,2 L-3,2 L-3,1 L0,1 Z "
     transform="translate(34,88)"
     style="fill: #1C0E0F;"
     id="path19" />
  <path
     d="M0,0 L78,0 L78,14 L0,14 Z "
     transform="translate(70,17)"
     style="fill: #FEBA00;"
     id="path21" />
  <path
     d="M0,0 L80,0 L80,76 L75,76 L75,75 L79,75 L79,61 L1,61 L1,74 L4,74 L4,75 L39,75 L39,78 L38,78 L38,76 L0,76 L0,58 L79,58 L79,40 L0,40 L0,38 L79,38 L79,20 L0,20 Z M1,3 L1,17 L79,17 L79,3 Z "
     transform="translate(69,14)"
     style="fill: #945409;"
     id="path23" />
  <path
     d="M0,0 L78,0 L78,14 L74,14 L74,15 L73,15 L73,13 L72,13 L72,12 L71,12 L71,11 L69,11 L69,10 L68,10 L68,9 L67,9 L67,8 L65,8 L65,9 L66,9 L66,11 L48,11 L48,12 L46,12 L46,13 L44,13 L44,10 L42,10 L42,11 L41,11 L41,12 L40,12 L40,13 L39,13 L39,14 L3,14 L3,13 L0,13 Z "
     transform="translate(70,75)"
     style="fill: #DB7500;"
     id="path25" />
  <path
     d="M0,0 L12,0 L12,1 L14,1 L14,2 L16,2 L16,3 L17,3 L17,4 L19,4 L19,5 L20,5 L20,7 L21,7 L21,8 L22,8 L22,10 L23,10 L23,12 L24,12 L24,19 L23,19 L23,22 L21,22 L21,24 L20,24 L20,26 L19,26 L19,27 L18,27 L18,29 L17,29 L17,30 L16,30 L16,31 L14,31 L14,32 L9,32 L9,33 L0,33 L0,32 L-2,32 L-2,31 L-4,31 L-4,29 L-5,29 L-5,28 L-6,28 L-6,27 L-7,27 L-7,25 L-8,25 L-8,23 L-9,23 L-9,21 L-10,21 L-10,20 L-11,20 L-11,11 L-10,11 L-10,9 L-9,9 L-9,7 L-8,7 L-8,6 L-7,6 L-7,5 L-6,5 L-6,4 L-5,4 L-5,3 L-3,3 L-3,2 L-2,2 L-2,1 L0,1 Z "
     transform="translate(120,91)"
     style="fill: #2C2B2C;"
     id="path27" />
  <path
     d="M0,0 L84,0 L84,80 L78,80 L78,79 L77,79 L77,78 L82,78 L82,2 L2,2 L2,78 L40,78 L40,81 L-1,81 L-1,60 L-2,60 L-2,15 L-27,15 L-27,14 L-1,14 L-1,1 L0,1 Z "
     transform="translate(67,12)"
     style="fill: #908F89;"
     id="path29" />
  <path
     d="M0,0 L6,0 L6,1 L8,1 L8,0 L10,0 L10,1 L11,1 L11,0 L15,0 L15,1 L16,1 L16,0 L18,0 L18,1 L19,1 L19,0 L22,0 L22,1 L23,1 L23,0 L26,0 L26,1 L27,1 L27,0 L28,0 L28,1 L30,1 L30,0 L38,0 L38,1 L39,1 L39,0 L41,0 L41,1 L44,1 L44,6 L45,6 L45,15 L-4,15 L-4,4 L-5,4 L-5,2 L-2,2 L-2,3 L-1,3 L-1,1 L0,1 Z "
     transform="translate(62,97)"
     style="fill: #C50000;"
     id="path31" />
  <path
     d="M0,0 L5,0 L5,1 L6,1 L6,31 L5,31 L5,32 L4,32 L4,33 L3,33 L3,34 L2,34 L2,35 L1,35 L1,36 L0,36 L0,37 L-19,37 L-19,36 L-20,36 L-20,31 L-19,31 L-19,29 L-18,29 L-18,27 L-17,27 L-17,25 L-16,25 L-16,22 L-15,22 L-15,20 L-14,20 L-14,19 L-13,19 L-13,17 L-12,17 L-12,15 L-11,15 L-11,14 L-10,14 L-10,12 L-9,12 L-9,11 L-8,11 L-8,9 L-7,9 L-7,8 L-6,8 L-6,6 L-5,6 L-5,5 L-4,5 L-4,4 L-3,4 L-3,2 L-2,2 L-2,1 L0,1 Z "
     transform="translate(38,29)"
     style="fill: #5FA8B9;"
     id="path33" />
  <path
     d="M0,0 L7,0 L7,1 L10,1 L10,2 L11,2 L11,3 L13,3 L13,5 L14,5 L14,6 L15,6 L15,8 L16,8 L16,16 L15,16 L15,18 L14,18 L14,19 L13,19 L13,20 L12,20 L12,21 L11,21 L11,22 L9,22 L9,23 L8,23 L8,24 L0,24 L0,23 L-2,23 L-2,22 L-3,22 L-3,21 L-4,21 L-4,20 L-5,20 L-5,19 L-6,19 L-6,18 L-7,18 L-7,16 L-8,16 L-8,8 L-7,8 L-7,6 L-6,6 L-6,5 L-5,5 L-5,4 L-4,4 L-4,3 L-3,3 L-3,2 L-2,2 L-2,1 L0,1 Z "
     transform="translate(35,96)"
     style="fill: #5A5D60;"
     id="path35" />
  <path
     d="M0,0 L12,0 L12,31 L0,31 Z "
     transform="translate(50,29)"
     style="fill: #6CBBCB;"
     id="path37" />
  <path
     d="M0,0 L80,0 L80,18 L0,18 Z M1,3 L1,17 L79,17 L79,3 Z "
     transform="translate(69,14)"
     style="fill: #91773D;"
     id="path39" />
  <path
     d="M0,0 L12,0 L12,1 L15,1 L15,2 L17,2 L17,3 L18,3 L18,4 L19,4 L19,6 L2,6 L2,7 L-1,7 L-1,8 L-3,8 L-3,9 L-4,9 L-4,10 L-6,10 L-6,11 L-7,11 L-7,12 L-8,12 L-8,13 L-9,13 L-9,15 L-10,15 L-10,17 L-11,17 L-11,19 L-12,19 L-12,31 L-17,31 L-17,30 L-18,30 L-18,29 L-19,29 L-19,28 L-20,28 L-20,26 L-21,26 L-21,13 L-19,13 L-19,12 L-12,12 L-12,11 L-11,11 L-11,10 L-10,10 L-10,8 L-9,8 L-9,7 L-8,7 L-8,5 L-7,5 L-7,4 L-6,4 L-6,3 L-5,3 L-5,2 L-2,2 L-2,1 L0,1 Z "
     transform="translate(32,82)"
     style="fill: #F50604;"
     id="path41" />
  <path
     d="M0,0 L83,0 L83,80 L77,80 L77,79 L76,79 L76,78 L81,78 L81,2 L0,2 Z "
     transform="translate(68,12)"
     style="fill: #B0BABA;"
     id="path43" />
  <path
     d="M0,0 L9,0 L9,1 L12,1 L12,2 L14,2 L14,3 L16,3 L16,4 L17,4 L17,5 L18,5 L18,6 L19,6 L19,7 L20,7 L20,8 L21,8 L21,9 L22,9 L22,11 L23,11 L23,13 L24,13 L24,26 L23,26 L23,29 L22,29 L22,30 L21,30 L21,32 L20,32 L20,33 L19,33 L19,34 L18,34 L18,35 L17,35 L17,36 L16,36 L16,37 L14,37 L14,38 L11,38 L11,39 L-2,39 L-2,38 L-4,38 L-4,37 L-5,37 L-5,36 L-7,36 L-7,35 L-8,35 L-8,34 L-9,34 L-9,33 L-10,33 L-10,31 L-11,31 L-11,30 L-12,30 L-12,27 L-13,27 L-13,24 L-14,24 L-14,13 L-13,13 L-13,11 L-12,11 L-12,9 L-11,9 L-11,8 L-10,8 L-10,7 L-9,7 L-9,6 L-8,6 L-8,5 L-7,5 L-7,4 L-6,4 L-6,3 L-5,3 L-5,2 L-3,2 L-3,1 L0,1 Z M-1,3 L-1,4 L-3,4 L-3,5 L-4,5 L-4,6 L-6,6 L-6,7 L-7,7 L-7,8 L-8,8 L-8,9 L-9,9 L-9,10 L-10,10 L-10,12 L-11,12 L-11,14 L-12,14 L-12,23 L-11,23 L-11,24 L-10,24 L-10,26 L-9,26 L-9,28 L-8,28 L-8,30 L-7,30 L-7,31 L-6,31 L-6,32 L-5,32 L-5,34 L-3,34 L-3,35 L-1,35 L-1,36 L8,36 L8,35 L13,35 L13,34 L15,34 L15,33 L16,33 L16,32 L17,32 L17,30 L18,30 L18,29 L19,29 L19,27 L20,27 L20,25 L22,25 L22,22 L23,22 L23,15 L22,15 L22,13 L21,13 L21,11 L20,11 L20,10 L19,10 L19,8 L18,8 L18,7 L16,7 L16,6 L15,6 L15,5 L13,5 L13,4 L11,4 L11,3 Z "
     transform="translate(121,88)"
     style="fill: #0B0B0C;"
     id="path45" />
  <path
     d="M0,0 L13,0 L13,1 L16,1 L16,2 L17,2 L17,3 L19,3 L19,4 L20,4 L20,5 L21,5 L21,6 L22,6 L22,8 L23,8 L23,11 L22,11 L22,10 L21,10 L21,9 L20,9 L20,7 L19,7 L19,6 L18,6 L18,5 L17,5 L17,4 L15,4 L15,3 L12,3 L12,2 L1,2 L1,3 L-1,3 L-1,5 L-2,5 L-2,7 L-3,7 L-3,8 L-4,8 L-4,9 L-6,9 L-6,12 L-7,12 L-7,18 L-6,18 L-6,21 L-4,21 L-4,23 L-3,23 L-3,24 L-2,24 L-2,25 L-1,25 L-1,26 L0,26 L0,27 L1,27 L1,28 L3,28 L3,29 L11,29 L11,28 L12,28 L12,27 L14,27 L14,26 L15,26 L15,25 L16,25 L16,24 L17,24 L17,26 L16,26 L16,27 L15,27 L15,28 L14,28 L14,29 L13,29 L13,30 L12,30 L12,31 L11,31 L11,33 L0,33 L0,32 L-1,32 L-1,31 L-3,31 L-3,30 L-4,30 L-4,29 L-5,29 L-5,28 L-6,28 L-6,25 L-7,25 L-7,24 L-8,24 L-8,22 L-9,22 L-9,21 L-10,21 L-10,19 L-11,19 L-11,12 L-10,12 L-10,10 L-9,10 L-9,8 L-8,8 L-8,7 L-7,7 L-7,5 L-6,5 L-6,4 L-5,4 L-5,3 L-4,3 L-4,2 L-2,2 L-2,1 L0,1 Z "
     transform="translate(32,91)"
     style="fill: #282728;"
     id="path47" />
  <path
     d="M0,0 L7,0 L7,1 L8,1 L8,2 L9,2 L9,4 L10,4 L10,8 L8,8 L8,9 L-6,9 L-6,12 L-5,12 L-5,13 L-4,13 L-4,14 L-3,14 L-3,15 L-2,15 L-2,16 L6,16 L6,15 L8,15 L8,14 L9,14 L9,13 L10,13 L10,11 L11,11 L11,6 L13,6 L13,5 L14,5 L14,12 L13,12 L13,14 L12,14 L12,15 L11,15 L11,16 L10,16 L10,17 L8,17 L8,18 L6,18 L6,19 L-2,19 L-2,18 L-4,18 L-4,17 L-6,17 L-6,16 L-7,16 L-7,15 L-8,15 L-8,13 L-9,13 L-9,5 L-8,5 L-8,6 L-7,6 L-7,7 L-6,7 L-6,4 L-5,4 L-5,3 L-4,3 L-4,2 L-3,2 L-3,1 L0,1 Z "
     transform="translate(124,101)"
     style="fill: #686A6D;"
     id="path49" />
  <path
     d="M0,0 L10,0 L10,1 L12,1 L12,2 L13,2 L13,3 L14,3 L14,4 L15,4 L15,5 L16,5 L16,7 L17,7 L17,9 L16,9 L16,10 L14,10 L14,15 L13,15 L13,17 L12,17 L12,18 L11,18 L11,19 L9,19 L9,20 L1,20 L1,19 L0,19 L0,18 L-1,18 L-1,17 L-2,17 L-2,16 L-3,16 L-3,13 L11,13 L11,12 L13,12 L13,8 L12,8 L12,6 L11,6 L11,5 L10,5 L10,4 L3,4 L3,5 L0,5 L0,6 L-1,6 L-1,7 L-2,7 L-2,8 L-3,8 L-3,11 L-4,11 L-4,10 L-5,10 L-5,9 L-6,9 L-6,15 L-7,15 L-7,8 L-6,8 L-6,6 L-5,6 L-5,4 L-4,4 L-4,3 L-3,3 L-3,2 L-1,2 L-1,1 L0,1 Z "
     transform="translate(121,97)"
     style="fill: #55585B;"
     id="path51" />
  <path
     d="M0,0 L11,0 L11,1 L14,1 L14,2 L16,2 L16,3 L17,3 L17,4 L18,4 L18,5 L19,5 L19,7 L20,7 L20,8 L21,8 L21,9 L22,9 L22,7 L23,7 L23,10 L24,10 L24,16 L23,16 L23,18 L22,18 L22,19 L21,19 L21,21 L20,21 L20,23 L19,23 L19,24 L18,24 L18,25 L17,25 L17,27 L16,27 L16,28 L15,28 L15,29 L14,29 L14,30 L10,30 L10,29 L11,29 L11,28 L12,28 L12,27 L13,27 L13,26 L14,26 L14,25 L15,25 L15,24 L16,24 L16,21 L17,21 L17,19 L18,19 L18,11 L17,11 L17,9 L16,9 L16,8 L15,8 L15,6 L13,6 L13,5 L12,5 L12,4 L9,4 L9,3 L2,3 L2,4 L0,4 L0,5 L-1,5 L-1,6 L-2,6 L-2,7 L-3,7 L-3,8 L-4,8 L-4,9 L-5,9 L-5,11 L-6,11 L-6,19 L-7,19 L-7,16 L-8,16 L-8,10 L-7,10 L-7,7 L-5,7 L-5,6 L-4,6 L-4,5 L-3,5 L-3,3 L-2,3 L-2,1 L0,1 Z "
     transform="translate(33,93)"
     style="fill: #262627;"
     id="path53" />
  <path
     d="M0,0 L7,0 L7,2 L9,2 L9,3 L10,3 L10,4 L11,4 L11,9 L-5,9 L-5,13 L-4,13 L-4,14 L-3,14 L-3,15 L-2,15 L-2,16 L-1,16 L-1,17 L6,17 L6,16 L8,16 L8,15 L9,15 L9,14 L10,14 L10,13 L11,13 L11,12 L13,12 L13,15 L12,15 L12,16 L11,16 L11,17 L10,17 L10,18 L8,18 L8,19 L7,19 L7,20 L-1,20 L-1,19 L-3,19 L-3,18 L-4,18 L-4,17 L-5,17 L-5,16 L-6,16 L-6,15 L-7,15 L-7,14 L-8,14 L-8,12 L-9,12 L-9,6 L-6,6 L-6,8 L-5,8 L-5,4 L-4,4 L-4,3 L-3,3 L-3,2 L-2,2 L-2,1 L0,1 Z "
     transform="translate(36,100)"
     style="fill: #6F7274;"
     id="path55" />
  <path
     d="M0,0 L1,0 L1,1 L2,1 L2,2 L3,2 L3,3 L4,3 L4,4 L5,4 L5,6 L6,6 L6,8 L8,8 L8,10 L56,10 L56,9 L58,9 L58,8 L59,8 L59,11 L58,11 L58,13 L57,13 L57,15 L56,15 L56,17 L55,17 L55,12 L52,12 L52,11 L50,11 L50,12 L49,12 L49,11 L41,11 L41,12 L39,12 L39,11 L38,11 L38,12 L37,12 L37,11 L34,11 L34,12 L33,12 L33,11 L30,11 L30,12 L29,12 L29,11 L27,11 L27,12 L26,12 L26,11 L22,11 L22,12 L21,12 L21,11 L19,11 L19,12 L17,12 L17,11 L11,11 L11,12 L10,12 L10,14 L9,14 L9,13 L5,13 L5,11 L4,11 L4,10 L3,10 L3,9 L2,9 L2,8 L1,8 L1,7 L0,7 L0,6 L-1,6 L-1,5 L-3,5 L-3,4 L-4,4 L-4,3 L-7,3 L-7,2 L0,2 Z "
     transform="translate(51,86)"
     style="fill: #EB0100;"
     id="path57" />
  <path
     d="M0,0 L8,0 L8,2 L11,2 L11,3 L10,3 L10,5 L9,5 L9,17 L4,17 L4,16 L3,16 L3,15 L2,15 L2,14 L1,14 L1,12 L0,12 Z "
     transform="translate(11,96)"
     style="fill: #CA0000;"
     id="path59" />
  <path
     d="M0,0 L9,0 L9,1 L12,1 L12,2 L14,2 L14,3 L16,3 L16,4 L17,4 L17,5 L18,5 L18,6 L19,6 L19,7 L20,7 L20,8 L21,8 L21,9 L22,9 L22,11 L23,11 L23,13 L24,13 L24,17 L23,17 L23,15 L22,15 L22,13 L21,13 L21,11 L20,11 L20,10 L19,10 L19,8 L18,8 L18,7 L16,7 L16,6 L15,6 L15,5 L13,5 L13,4 L11,4 L11,3 L-1,3 L-1,4 L-3,4 L-3,5 L-4,5 L-4,6 L-6,6 L-6,7 L-7,7 L-7,8 L-8,8 L-8,9 L-9,9 L-9,10 L-10,10 L-10,12 L-11,12 L-11,14 L-12,14 L-12,16 L-13,16 L-13,24 L-14,24 L-14,13 L-13,13 L-13,11 L-12,11 L-12,9 L-11,9 L-11,8 L-10,8 L-10,7 L-9,7 L-9,6 L-8,6 L-8,5 L-7,5 L-7,4 L-6,4 L-6,3 L-5,3 L-5,2 L-3,2 L-3,1 L0,1 Z "
     transform="translate(121,88)"
     style="fill: #280404;"
     id="path61" />
  <path
     d="M0,0 L1,0 L1,3 L0,3 L0,5 L-1,5 L-1,7 L-2,7 L-2,8 L-3,8 L-3,9 L-4,9 L-4,10 L-5,10 L-5,11 L-7,11 L-7,12 L-9,12 L-9,13 L-11,13 L-11,14 L-24,14 L-24,13 L-26,13 L-26,12 L-28,12 L-28,11 L-29,11 L-29,10 L-30,10 L-30,9 L-31,9 L-31,8 L-32,8 L-32,6 L-33,6 L-33,4 L-31,4 L-31,5 L-30,5 L-30,6 L-29,6 L-29,7 L-28,7 L-28,8 L-27,8 L-27,9 L-25,9 L-25,10 L-24,10 L-24,11 L-13,11 L-13,10 L-9,10 L-9,9 L-8,9 L-8,8 L-7,8 L-7,7 L-5,7 L-5,6 L-4,6 L-4,5 L-3,5 L-3,4 L-2,4 L-2,3 L-1,3 L-1,1 L0,1 Z "
     transform="translate(56,113)"
     style="fill: #09090A;"
     id="path63" />
  <path
     d="M0,0 L1,0 L1,14 L0,14 L0,15 L-1,15 L-1,16 L-7,16 L-7,6 L-6,6 L-6,1 L0,1 Z "
     transform="translate(152,96)"
     style="fill: #C90000;"
     id="path65" />
  <path
     d="M0,0 L1,0 L1,19 L0,19 L0,20 L-1,20 L-1,21 L-2,21 L-2,22 L-3,22 L-3,23 L-4,23 L-4,24 L-5,24 L-5,25 L-24,25 L-24,24 L-25,24 L-25,19 L-24,19 L-24,17 L-23,17 L-23,15 L-22,15 L-22,13 L-21,13 L-21,10 L-20,10 L-20,8 L-19,8 L-19,7 L-18,7 L-18,9 L-19,9 L-19,11 L-20,11 L-20,15 L-21,15 L-21,17 L-22,17 L-22,18 L-23,18 L-23,22 L-10,22 L-10,23 L-7,23 L-7,22 L-4,22 L-4,21 L-3,21 L-3,20 L-2,20 L-2,19 L-1,19 L-1,18 L0,18 Z "
     transform="translate(43,41)"
     style="fill: #49676F;"
     id="path67" />
  <path
     d="M0,0 L14,0 L14,1 L16,1 L16,3 L17,3 L17,5 L-1,5 L-1,6 L-3,6 L-3,7 L-5,7 L-5,4 L-6,4 L-6,3 L-5,3 L-5,2 L-3,2 L-3,1 L0,1 Z "
     transform="translate(119,81)"
     style="fill: #F94122;"
     id="path69" />
  <path
     d="M0,0 L12,0 L12,1 L15,1 L15,2 L16,2 L16,4 L17,4 L17,6 L18,6 L18,8 L19,8 L19,17 L18,17 L18,12 L17,12 L17,10 L16,10 L16,8 L15,8 L15,7 L14,7 L14,6 L13,6 L13,5 L12,5 L12,4 L10,4 L10,3 L0,3 L0,4 L-1,4 L-1,5 L-3,5 L-3,6 L-4,6 L-4,7 L-5,7 L-5,9 L-6,9 L-6,11 L-7,11 L-7,12 L-8,12 L-8,9 L-7,9 L-7,7 L-6,7 L-6,5 L-5,5 L-5,4 L-3,4 L-3,3 L-2,3 L-2,2 L-1,2 L-1,1 L0,1 Z "
     transform="translate(121,94)"
     style="fill: #1F1F21;"
     id="path71" />
  <path
     d="M0,0 L12,0 L12,31 L0,31 Z M2,1 L2,2 L1,2 L1,29 L5,29 L5,28 L9,28 L9,29 L10,29 L10,23 L11,23 L11,2 L10,2 L10,1 Z "
     transform="translate(50,29)"
     style="fill: #496A71;"
     id="path73" />
  <path
     d="M0,0 L12,0 L12,1 L15,1 L15,2 L17,2 L17,3 L18,3 L18,4 L19,4 L19,6 L15,6 L15,5 L-4,5 L-4,3 L-3,3 L-3,2 L-2,2 L-2,1 L0,1 Z "
     transform="translate(32,82)"
     style="fill: #FE402A;"
     id="path75" />
  <path
     d="M0,0 L11,0 L11,2 L12,2 L12,3 L13,3 L13,4 L15,4 L15,5 L16,5 L16,6 L17,6 L17,8 L18,8 L18,10 L17,10 L17,9 L16,9 L16,8 L15,8 L15,6 L13,6 L13,5 L12,5 L12,4 L9,4 L9,3 L2,3 L2,4 L0,4 L0,5 L-1,5 L-1,6 L-2,6 L-2,7 L-3,7 L-3,8 L-4,8 L-4,9 L-5,9 L-5,11 L-6,11 L-6,19 L-7,19 L-7,16 L-8,16 L-8,10 L-7,10 L-7,7 L-5,7 L-5,6 L-4,6 L-4,5 L-3,5 L-3,3 L-2,3 L-2,1 L0,1 Z "
     transform="translate(33,93)"
     style="fill: #202021;"
     id="path77" />
  <path
     d="M0,0 L3,0 L3,1 L2,1 L2,2 L77,2 L77,0 L80,0 L80,3 L0,3 Z "
     transform="translate(69,14)"
     style="fill: #986C09;"
     id="path79" />
  <path
     d="M0,0 L1,0 L1,7 L0,7 L0,9 L-1,9 L-1,10 L-2,10 L-2,11 L-3,11 L-3,12 L-5,12 L-5,13 L-7,13 L-7,14 L-15,14 L-15,13 L-17,13 L-17,12 L-19,12 L-19,11 L-20,11 L-20,8 L-17,8 L-17,9 L-16,9 L-16,10 L-15,10 L-15,11 L-7,11 L-7,10 L-5,10 L-5,9 L-4,9 L-4,8 L-3,8 L-3,6 L-2,6 L-2,1 L0,1 Z "
     transform="translate(137,106)"
     style="fill: #9D9FA1;"
     id="path81" />
  <path
     d="M0,0 L10,0 L10,1 L1,1 L1,3 L-2,3 L-2,4 L-4,4 L-4,5 L-6,5 L-6,6 L-7,6 L-7,7 L-8,7 L-8,8 L-9,8 L-9,10 L-10,10 L-10,11 L-11,11 L-11,13 L-12,13 L-12,15 L-13,15 L-13,22 L-12,22 L-12,24 L-11,24 L-11,25 L-10,25 L-10,27 L-9,27 L-9,28 L-8,28 L-8,30 L-9,30 L-9,29 L-11,29 L-11,30 L-12,30 L-12,28 L-13,28 L-13,25 L-14,25 L-14,13 L-13,13 L-13,11 L-12,11 L-12,9 L-11,9 L-11,7 L-10,7 L-10,6 L-9,6 L-9,5 L-8,5 L-8,4 L-6,4 L-6,3 L-5,3 L-5,2 L-3,2 L-3,1 L0,1 Z "
     transform="translate(34,88)"
     style="fill: #190E0F;"
     id="path83" />
  <path
     d="M0,0 L13,0 L13,1 L16,1 L16,2 L17,2 L17,3 L19,3 L19,4 L20,4 L20,5 L21,5 L21,6 L22,6 L22,8 L23,8 L23,11 L22,11 L22,10 L21,10 L21,9 L20,9 L20,7 L19,7 L19,6 L18,6 L18,5 L17,5 L17,4 L15,4 L15,3 L12,3 L12,2 L1,2 L1,3 L-1,3 L-1,4 L-3,4 L-3,5 L-4,5 L-4,6 L-5,6 L-5,7 L-6,7 L-6,8 L-7,8 L-7,10 L-8,10 L-8,11 L-9,11 L-9,8 L-8,8 L-8,7 L-7,7 L-7,5 L-6,5 L-6,4 L-5,4 L-5,3 L-4,3 L-4,2 L-2,2 L-2,1 L0,1 Z "
     transform="translate(32,91)"
     style="fill: #454345;"
     id="path85" />
  <path
     d="M0,0 L1,0 L1,3 L0,3 L0,4 L-1,4 L-1,6 L-2,6 L-2,7 L-3,7 L-3,9 L-4,9 L-4,10 L-5,10 L-5,12 L-6,12 L-6,13 L-7,13 L-7,15 L-8,15 L-8,17 L-9,17 L-9,19 L-10,19 L-10,21 L-11,21 L-11,24 L-12,24 L-12,25 L-13,25 L-13,29 L-14,29 L-14,30 L-15,30 L-15,27 L-14,27 L-14,22 L-13,22 L-13,19 L-12,19 L-12,17 L-11,17 L-11,15 L-10,15 L-10,13 L-9,13 L-9,11 L-8,11 L-8,9 L-7,9 L-7,8 L-6,8 L-6,7 L-5,7 L-5,5 L-4,5 L-4,4 L-3,4 L-3,3 L-2,3 L-2,2 L-1,2 L-1,1 L0,1 Z "
     transform="translate(30,33)"
     style="fill: #6CABB8;"
     id="path87" />
  <path
     d="M0,0 L13,0 L13,1 L14,1 L14,3 L13,3 L13,4 L12,4 L12,5 L10,5 L10,6 L3,6 L3,5 L2,5 L2,4 L1,4 L1,3 L0,3 Z "
     transform="translate(32,111)"
     style="fill: #494C4F;"
     id="path89" />
  <path
     d="M0,0 L2,0 L2,3 L1,3 L1,4 L0,4 L0,5 L-1,5 L-1,6 L-3,6 L-3,7 L-4,7 L-4,8 L-12,8 L-12,7 L-14,7 L-14,6 L-15,6 L-15,5 L-16,5 L-16,4 L-17,4 L-17,3 L-18,3 L-18,1 L-15,1 L-15,2 L-14,2 L-14,3 L-13,3 L-13,4 L-12,4 L-12,5 L-5,5 L-5,4 L-3,4 L-3,3 L-2,3 L-2,2 L-1,2 L-1,1 L0,1 Z "
     transform="translate(47,112)"
     style="fill: #9FA0A2;"
     id="path91" />
  <path
     d="M0,0 L1,0 L1,2 L2,2 L2,3 L3,3 L3,5 L8,5 L8,6 L9,6 L9,7 L11,7 L11,8 L10,8 L10,9 L4,9 L4,14 L3,14 L3,13 L2,13 L2,11 L1,11 L1,9 L0,9 L0,8 L-1,8 L-1,7 L-2,7 L-2,6 L-3,6 L-3,5 L-1,5 L-1,6 L0,6 L0,5 L1,5 L1,4 L0,4 Z "
     transform="translate(142,88)"
     style="fill: #D70705;"
     id="path93" />
  <path
     d="M0,0 L8,0 L8,1 L10,1 L10,2 L12,2 L12,3 L13,3 L13,4 L15,4 L15,5 L16,5 L16,7 L17,7 L17,8 L18,8 L18,10 L19,10 L19,14 L17,14 L17,13 L16,13 L16,11 L15,11 L15,9 L14,9 L14,7 L13,7 L13,5 L12,5 L12,4 L9,4 L9,3 L7,3 L7,2 L-3,2 L-3,1 L0,1 Z "
     transform="translate(124,91)"
     style="fill: #3D3C3E;"
     id="path95" />
  <path
     d="M0,0 L2,0 L2,2 L0,2 L0,3 L-1,3 L-1,5 L-2,5 L-2,6 L-3,6 L-3,7 L-4,7 L-4,9 L-5,9 L-5,10 L-6,10 L-6,12 L-7,12 L-7,13 L-8,13 L-8,15 L-9,15 L-9,16 L-10,16 L-10,18 L-11,18 L-11,20 L-12,20 L-12,21 L-13,21 L-13,23 L-14,23 L-14,26 L-15,26 L-15,28 L-16,28 L-16,30 L-17,30 L-17,32 L-19,32 L-19,30 L-18,30 L-18,29 L-17,29 L-17,26 L-16,26 L-16,24 L-15,24 L-15,22 L-14,22 L-14,20 L-13,20 L-13,18 L-12,18 L-12,17 L-11,17 L-11,15 L-10,15 L-10,14 L-9,14 L-9,12 L-8,12 L-8,11 L-7,11 L-7,9 L-6,9 L-6,8 L-5,8 L-5,4 L-3,4 L-3,3 L-2,3 L-2,2 L-1,2 L-1,1 L0,1 Z "
     transform="translate(36,28)"
     style="fill: #C2C7B1;"
     id="path97" />
  <path
     d="M0,0 L13,0 L13,3 L12,3 L12,4 L10,4 L10,5 L2,5 L2,4 L1,4 L1,3 L0,3 Z "
     transform="translate(120,112)"
     style="fill: #46494D;"
     id="path99" />
  <path
     d="M0,0 L1,0 L1,7 L0,7 L0,10 L-2,10 L-2,12 L-3,12 L-3,14 L-4,14 L-4,15 L-5,15 L-5,13 L-6,13 L-6,14 L-7,14 L-7,12 L-6,12 L-6,10 L-5,10 L-5,3 L-4,3 L-4,8 L-3,8 L-3,1 L-2,1 L-2,2 L0,2 Z "
     transform="translate(143,103)"
     style="fill: #262627;"
     id="path101" />
  <path
     d="M0,0 L5,0 L5,1 L6,1 L6,6 L-4,6 L-4,2 L-3,2 L-3,1 L0,1 Z "
     transform="translate(124,101)"
     style="fill: #989A9C;"
     id="path103" />
  <path
     d="M0,0 L7,0 L7,5 L6,5 L6,7 L5,7 L5,8 L3,8 L3,9 L1,9 L1,8 L0,8 Z "
     transform="translate(14,77)"
     style="fill: #F4A83D;"
     id="path105" />
  <path
     d="M0,0 L10,0 L10,1 L13,1 L13,2 L14,2 L14,3 L0,3 L0,4 L-2,4 L-2,5 L-5,5 L-5,3 L-4,3 L-4,2 L-2,2 L-2,1 L0,1 Z "
     transform="translate(120,82)"
     style="fill: #FE9382;"
     id="path107" />
  <path
     d="M0,0 L7,0 L7,2 L8,2 L8,5 L7,5 L7,6 L-1,6 L-1,2 L0,2 Z "
     transform="translate(36,100)"
     style="fill: #9B9D9F;"
     id="path109" />
  <path
     d="M0,0 L2,0 L2,1 L3,1 L3,2 L4,2 L4,7 L1,7 L1,8 L-10,8 L-10,3 L-9,3 L-9,6 L1,6 L1,1 L0,1 Z "
     transform="translate(129,101)"
     style="fill: #7D7F82;"
     id="path111" />
  <path
     d="M0,0 L8,0 L8,1 L11,1 L11,2 L12,2 L12,4 L5,4 L5,3 L-3,3 L-3,1 L0,1 Z "
     transform="translate(36,82)"
     style="fill: #FEA193;"
     id="path113" />
  <path
     d="M0,0 L1,0 L1,9 L0,9 L0,12 L-1,12 L-1,13 L-2,13 L-2,15 L-3,15 L-3,16 L-4,16 L-4,15 L-5,15 L-5,16 L-6,16 L-6,17 L-8,17 L-8,16 L-7,16 L-7,15 L-6,15 L-6,13 L-5,13 L-5,12 L-4,12 L-4,10 L-3,10 L-3,8 L-1,8 L-1,5 L0,5 Z "
     transform="translate(144,105)"
     style="fill: #0F0F10;"
     id="path115" />
  <path
     d="M0,0 L1,0 L1,1 L2,1 L2,2 L3,2 L3,3 L4,3 L4,4 L6,4 L6,5 L14,5 L14,4 L15,4 L15,3 L17,3 L17,2 L18,2 L18,1 L19,1 L19,0 L20,0 L20,2 L19,2 L19,3 L18,3 L18,4 L17,4 L17,5 L16,5 L16,6 L13,6 L13,7 L7,7 L7,6 L4,6 L4,5 L2,5 L2,4 L1,4 L1,2 L-1,2 L-1,1 L0,1 Z "
     transform="translate(29,115)"
     style="fill: #434344;"
     id="path117" />
  <path
     d="M0,0 L3,0 L3,1 L2,1 L2,2 L4,2 L4,3 L3,3 L3,4 L1,4 L1,5 L0,5 L0,6 L-1,6 L-1,7 L-2,7 L-2,11 L-3,11 L-3,9 L-6,9 L-6,7 L-5,7 L-5,5 L-4,5 L-4,4 L-3,4 L-3,3 L-2,3 L-2,2 L-1,2 L-1,1 L0,1 Z "
     transform="translate(33,97)"
     style="fill: #4E5255;"
     id="path119" />
  <path
     d="M0,0 L9,0 L9,1 L10,1 L10,2 L11,2 L11,3 L13,3 L13,4 L14,4 L14,5 L15,5 L15,7 L16,7 L16,9 L15,9 L15,8 L14,8 L14,7 L13,7 L13,5 L11,5 L11,4 L10,4 L10,3 L7,3 L7,2 L0,2 L0,3 L-3,3 L-3,2 L-2,2 L-2,1 L0,1 Z "
     transform="translate(35,94)"
     style="fill: #151516;"
     id="path121" />
  <path
     d="M0,0 L2,0 L2,1 L1,1 L1,5 L9,5 L9,4 L10,4 L10,1 L11,1 L11,2 L12,2 L12,6 L11,6 L11,7 L2,7 L2,6 L-1,6 L-1,1 L0,1 Z "
     transform="translate(34,101)"
     style="fill: #848688;"
     id="path123" />
  <path
     d="M0,0 L1,0 L1,9 L-4,9 L-4,8 L-5,8 L-5,7 L-6,7 L-6,6 L-7,6 L-7,5 L-4,5 L-4,3 L-3,3 L-3,1 L-1,1 L-1,8 L0,8 Z "
     transform="translate(19,104)"
     style="fill: #830707;"
     id="path125" />
  <path
     d="M0,0 L3,0 L3,1 L9,1 L9,2 L1,2 L1,3 L-1,3 L-1,4 L-3,4 L-3,5 L-4,5 L-4,6 L-5,6 L-5,7 L-6,7 L-6,8 L-7,8 L-7,10 L-8,10 L-8,11 L-9,11 L-9,8 L-8,8 L-8,7 L-7,7 L-7,5 L-6,5 L-6,4 L-5,4 L-5,3 L-4,3 L-4,2 L-2,2 L-2,1 L0,1 Z "
     transform="translate(32,91)"
     style="fill: #3E3D3E;"
     id="path127" />
  <path
     d="M0,0 L10,0 L10,1 L1,1 L1,3 L-2,3 L-2,4 L-4,4 L-4,5 L-6,5 L-6,6 L-7,6 L-7,7 L-8,7 L-8,8 L-10,8 L-10,9 L-11,9 L-11,7 L-10,7 L-10,6 L-9,6 L-9,5 L-8,5 L-8,4 L-6,4 L-6,3 L-5,3 L-5,2 L-3,2 L-3,1 L0,1 Z "
     transform="translate(34,88)"
     style="fill: #400404;"
     id="path129" />
  <path
     d="M0,0 L1,0 L1,7 L0,7 L0,9 L-1,9 L-1,10 L-2,10 L-2,11 L-3,11 L-3,12 L-4,12 L-4,11 L-7,11 L-7,10 L-5,10 L-5,9 L-4,9 L-4,8 L-3,8 L-3,6 L-2,6 L-2,1 L0,1 Z "
     transform="translate(137,106)"
     style="fill: #7E8083;"
     id="path131" />
  <path
     d="M0,0 L7,0 L7,2 L10,2 L10,3 L9,3 L9,5 L8,5 L8,8 L7,8 L7,16 L6,16 L6,2 L5,2 L5,3 L4,3 L4,1 L3,1 L3,2 L2,2 L2,1 L0,1 Z "
     transform="translate(12,96)"
     style="fill: #D40000;"
     id="path133" />
  <path
     d="M0,0 L4,0 L4,2 L3,2 L3,31 L2,31 L2,2 L1,2 L1,1 L0,1 Z "
     transform="translate(61,28)"
     style="fill: #F6EDCD;"
     id="path135" />
  <path
     d="M0,0 L1,0 L1,7 L3,7 L3,8 L6,8 L6,9 L5,9 L5,10 L4,10 L4,11 L-2,11 L-2,3 L-1,3 L-1,9 L0,9 Z "
     transform="translate(147,101)"
     style="fill: #8B0000;"
     id="path137" />
  <path
     d="M0,0 L5,0 L5,1 L6,1 L6,2 L7,2 L7,3 L8,3 L8,4 L9,4 L9,5 L10,5 L10,6 L11,6 L11,8 L12,8 L12,10 L13,10 L13,14 L12,14 L12,12 L11,12 L11,10 L10,10 L10,8 L9,8 L9,7 L8,7 L8,5 L7,5 L7,4 L5,4 L5,3 L4,3 L4,2 L2,2 L2,1 L0,1 Z "
     transform="translate(132,91)"
     style="fill: #200909;"
     id="path139" />
  <path
     d="M0,0 L7,0 L7,1 L2,1 L2,2 L-1,2 L-1,3 L-2,3 L-2,4 L-4,4 L-4,5 L-5,5 L-5,6 L-6,6 L-6,8 L-7,8 L-7,10 L-8,10 L-8,11 L-9,11 L-9,8 L-8,8 L-8,6 L-7,6 L-7,4 L-6,4 L-6,3 L-4,3 L-4,2 L-3,2 L-3,1 L0,1 Z "
     transform="translate(122,95)"
     style="fill: #151517;"
     id="path141" />
  <path
     d="M0,0 L2,0 L2,1 L1,1 L1,3 L-1,3 L-1,4 L-11,4 L-11,3 L-12,3 L-12,1 L-10,1 L-10,2 L-2,2 L-2,1 L0,1 Z "
     transform="translate(132,118)"
     style="fill: #4C4C4D;"
     id="path143" />
  <path
     d="M0,0 L1,0 L1,4 L2,4 L2,2 L3,2 L3,9 L-2,9 L-2,8 L-1,8 L-1,2 L0,2 Z "
     transform="translate(104,103)"
     style="fill: #9F0000;"
     id="path145" />
  <path
     d="M0,0 L5,0 L5,1 L7,1 L7,2 L6,2 L6,3 L0,3 L0,8 L-1,8 L-1,7 L-2,7 L-2,4 L-1,4 L-1,2 L-2,2 L-2,1 L0,1 Z "
     transform="translate(146,94)"
     style="fill: #EC1610;"
     id="path147" />
  <path
     d="M0,0 L4,0 L4,1 L13,1 L13,0 L16,0 L16,1 L15,1 L15,2 L4,2 L4,3 L5,3 L5,4 L3,4 L3,3 L1,3 L1,2 L0,2 Z "
     transform="translate(116,123)"
     style="fill: #141415;"
     id="path149" />
  <path
     d="M0,0 L1,0 L1,1 L2,1 L2,2 L3,2 L3,3 L4,3 L4,4 L11,4 L11,5 L4,5 L4,6 L12,6 L12,7 L3,7 L3,5 L2,5 L2,3 L1,3 L1,2 L0,2 Z "
     transform="translate(54,87)"
     style="fill: #D10000;"
     id="path151" />
  <path
     d="M0,0 L1,0 L1,3 L2,3 L2,2 L3,2 L3,6 L4,6 L4,9 L0,9 Z "
     transform="translate(58,103)"
     style="fill: #900000;"
     id="path153" />
  <path
     d="M0,0 L5,0 L5,3 L4,3 L4,4 L-2,4 L-2,1 L0,1 Z "
     transform="translate(124,101)"
     style="fill: #BBBDBE;"
     id="path155" />
  <path
     d="M0,0 L1,0 L1,2 L0,2 L0,4 L-1,4 L-1,5 L-2,5 L-2,6 L-7,6 L-7,3 L-3,3 L-3,2 L-1,2 L-1,1 L0,1 Z "
     transform="translate(22,88)"
     style="fill: #BC0302;"
     id="path157" />
  <path
     d="M0,0 L3,0 L3,3 L-15,3 L-15,2 L0,2 Z "
     transform="translate(146,14)"
     style="fill: #9C7119;"
     id="path159" />
  <path
     d="M0,0 L1,0 L1,3 L2,3 L2,6 L1,6 L1,4 L0,4 L0,5 L-1,5 L-1,7 L-2,7 L-2,8 L-3,8 L-3,9 L-4,9 L-4,10 L-5,10 L-5,11 L-6,11 L-6,9 L-5,9 L-5,8 L-4,8 L-4,7 L-3,7 L-3,5 L-2,5 L-2,3 L-1,3 L-1,2 L0,2 Z "
     transform="translate(56,109)"
     style="fill: #171718;"
     id="path161" />
  <path
     d="M0,0 L7,0 L7,1 L10,1 L10,2 L7,2 L7,3 L0,3 L0,2 L1,2 L1,1 L0,1 Z "
     transform="translate(35,96)"
     style="fill: #46494D;"
     id="path163" />
  <path
     d="M0,0 L1,0 L1,4 L-1,4 L-1,6 L-2,6 L-2,8 L-5,8 L-5,7 L-6,7 L-6,4 L-5,4 L-5,5 L-2,5 L-2,3 L-1,3 L-1,1 L0,1 Z "
     transform="translate(17,101)"
     style="fill: #B10201;"
     id="path165" />
  <path
     d="M0,0 L4,0 L4,1 L1,1 L1,3 L9,3 L9,4 L-2,4 L-2,1 L0,1 Z "
     transform="translate(32,82)"
     style="fill: #FE6856;"
     id="path167" />
  <path
     d="M0,0 L1,0 L1,3 L2,3 L2,4 L1,4 L1,8 L0,8 L0,6 L-3,6 L-3,4 L-2,4 L-2,2 L-1,2 L-1,1 L0,1 Z "
     transform="translate(30,100)"
     style="fill: #5B5D60;"
     id="path169" />
  <path
     d="M0,0 L2,0 L2,3 L1,3 L1,4 L0,4 L0,5 L-1,5 L-1,6 L-2,6 L-2,5 L-5,5 L-5,4 L-3,4 L-3,3 L-2,3 L-2,2 L-1,2 L-1,1 L0,1 Z "
     transform="translate(47,112)"
     style="fill: #8C8E90;"
     id="path171" />
  <path
     d="M0,0 L1,0 L1,2 L2,2 L2,4 L3,4 L3,5 L4,5 L4,3 L5,3 L5,7 L2,7 L2,6 L0,6 Z "
     transform="translate(148,102)"
     style="fill: #B40000;"
     id="path173" />
  <path
     d="M0,0 L6,0 L6,2 L7,2 L7,3 L0,3 Z "
     transform="translate(36,101)"
     style="fill: #C1C2C4;"
     id="path175" />
  <path
     d="M0,0 L3,0 L3,1 L5,1 L5,2 L6,2 L6,3 L7,3 L7,4 L8,4 L8,6 L7,6 L7,5 L5,5 L5,4 L4,4 L4,3 L2,3 L2,2 L1,2 L1,1 L0,1 Z "
     transform="translate(44,94)"
     style="fill: #2C2C2E;"
     id="path177" />
  <path
     d="M0,0 L1,0 L1,1 L2,1 L2,3 L3,3 L3,5 L4,5 L4,6 L2,6 L2,8 L1,8 L1,6 L0,6 Z "
     transform="translate(115,108)"
     style="fill: #75777A;"
     id="path179" />
  <path
     d="M0,0 L2,0 L2,1 L3,1 L3,4 L4,4 L4,5 L1,5 L1,4 L0,4 L0,3 L-3,3 L-3,2 L0,2 Z "
     transform="translate(131,98)"
     style="fill: #4E5255;"
     id="path181" />
  <path
     d="M0,0 L9,0 L9,1 L8,1 L8,2 L3,2 L3,3 L2,3 L2,2 L1,2 L1,1 L0,1 Z "
     transform="translate(42,28)"
     style="fill: #F8F4DA;"
     id="path183" />
</svg>
